<svg width="379" height="283" viewBox="0 0 379 283" fill="none" xmlns="http://www.w3.org/2000/svg">
<path d="M321.049 24.1217C296.516 13.0975 270.283 5.08552 242.858 0.523438C239.49 6.37187 235.555 14.2381 232.842 20.4957C203.689 16.2849 174.803 16.2849 146.186 20.4957C143.473 14.2381 139.449 6.37187 136.051 0.523438C108.596 5.08552 82.3339 13.1269 57.8005 24.1801C8.31657 95.9974 -5.09773 166.031 1.60943 235.07C34.4298 258.609 66.2367 272.909 97.5068 282.266C105.228 272.061 112.113 261.212 118.045 249.778C106.748 245.656 95.9269 240.568 85.7025 234.661C88.415 232.731 91.0683 230.713 93.6316 228.637C155.993 256.65 223.751 256.65 285.367 228.637C287.961 230.713 290.613 232.731 293.296 234.661C283.042 240.596 272.191 245.684 260.893 249.808C266.825 261.212 273.682 272.09 281.432 282.295C312.732 272.938 344.569 258.639 377.389 235.07C385.259 155.036 363.945 85.6458 321.049 24.1217ZM126.541 192.611C107.821 192.611 92.4689 175.827 92.4689 155.387C92.4689 134.947 107.493 118.133 126.541 118.133C145.59 118.133 160.942 134.918 160.614 155.387C160.643 175.827 145.59 192.611 126.541 192.611ZM252.457 192.611C233.737 192.611 218.385 175.827 218.385 155.387C218.385 134.947 233.409 118.133 252.457 118.133C271.505 118.133 286.858 134.918 286.53 155.387C286.53 175.827 271.505 192.611 252.457 192.611Z" fill="black"/>
</svg>
