<svg width="380" height="331" viewBox="0 0 380 331" fill="none" xmlns="http://www.w3.org/2000/svg">
<g clip-path="url(#clip0_511_9)">
<path d="M6.93934 93.9389L68.3273 13.3296C72.0775 8.39855 76.7153 4.8074 82.2361 2.5561C87.7477 0.30936 93.4641 -0.456265 99.3854 0.259229C105.298 0.96561 110.718 3.19412 115.643 6.94933L196.128 68.4181C200.943 72.0913 204.47 76.6896 206.705 82.2176C208.948 87.7365 209.768 93.4468 209.163 99.353C208.553 105.26 206.332 110.738 202.5 115.778L182.037 142.648L195.454 152.892L174.992 179.744L161.574 169.499L141.112 196.387C137.361 201.309 132.724 204.896 127.203 207.142C121.691 209.394 115.979 210.164 110.072 209.458C104.151 208.756 98.73 206.523 93.8146 202.767L13.3293 141.299C8.40481 137.544 4.81843 132.904 2.57009 127.372C0.312661 121.844 -0.456528 116.12 0.258031 110.2C0.963403 104.284 3.18908 98.8607 6.93934 93.9389ZM155.203 122.158L175.665 95.2878L95.18 33.8191L33.792 114.429L114.277 175.898L134.74 149.01L107.905 128.52L128.368 101.669L155.203 122.158Z" fill="black"/>
<path d="M279.787 330.794L178.457 254.742C173.805 251.251 170.401 246.926 168.244 241.762C166.095 236.594 165.331 231.235 165.95 225.684C166.569 220.12 168.617 215.016 172.103 210.372L229.067 134.247C232.549 129.607 236.869 126.203 242.03 124.038C247.186 121.878 252.538 121.113 258.087 121.742C263.643 122.361 268.746 124.417 273.397 127.903L374.727 203.955L355.739 229.312L254.409 153.26L197.445 229.385L298.775 305.437L279.787 330.794Z" fill="black"/>
</g>
<g clip-path="url(#clip1_511_9)">
<path d="M279.287 330.794L177.957 254.742C173.305 251.251 169.901 246.926 167.744 241.762C165.596 236.594 164.831 231.235 165.45 225.684C166.069 220.12 168.116 215.016 171.603 210.372L228.567 134.247C232.049 129.607 236.368 126.203 241.529 124.038C246.686 121.878 252.038 121.113 257.586 121.742C263.144 122.361 268.246 124.417 272.897 127.903L374.227 203.955L355.239 229.312L253.909 153.26L196.945 229.385L298.275 305.437L279.287 330.794Z" fill="black"/>
</g>
<g clip-path="url(#clip2_511_9)">
<path d="M7.24794 93.7744L68.6359 13.165C72.3862 8.23399 77.024 4.64288 82.5447 2.39158C88.0563 0.144784 93.7727 -0.620816 99.694 0.0946843C105.606 0.801084 111.026 3.02958 115.951 6.78478L196.437 68.2535C201.252 71.9267 204.779 76.525 207.014 82.053C209.257 87.5719 210.077 93.2822 209.472 99.1884C208.862 105.095 206.641 110.572 202.809 115.613L182.345 142.483L195.763 152.727L175.301 179.579L161.883 169.334L141.42 196.222C137.67 201.144 133.032 204.731 127.512 206.977C122 209.229 116.288 209.999 110.38 209.293C104.459 208.591 99.0386 206.358 94.1233 202.602L13.638 141.134C8.71346 137.379 5.12703 132.739 2.87869 127.207C0.621241 121.679 -0.14793 115.955 0.566624 110.035C1.27207 104.119 3.49766 98.6962 7.24794 93.7744ZM155.511 121.993L175.974 95.1233L95.4886 33.6546L34.1006 114.264L114.586 175.733L135.049 148.845L108.214 128.355L128.677 101.503L155.511 121.993Z" fill="black"/>
</g>
<defs>
<clipPath id="clip0_511_9">
<rect width="150.802" height="331" fill="white" transform="translate(87.3848)"/>
</clipPath>
<clipPath id="clip1_511_9">
<rect width="101.866" height="204" fill="white" transform="translate(272.641 127)"/>
</clipPath>
<clipPath id="clip2_511_9">
<rect width="52.9304" height="153" fill="white" transform="translate(0 34)"/>
</clipPath>
</defs>
</svg>
