<svg width="750" height="164" viewBox="0 0 750 164" fill="none" xmlns="http://www.w3.org/2000/svg">
<path d="M262.897 101.517H251.202V92.6456H236.646C230.174 92.6456 224.661 90.3644 220.099 85.8022C215.537 81.2399 213.256 75.7544 213.256 69.3274V42.497C213.256 36.0519 215.537 30.5483 220.099 25.986C224.661 21.4057 230.174 19.1064 236.646 19.1064H277.526C283.971 19.1064 289.474 21.4057 294.037 25.986C298.599 30.5483 300.88 36.0519 300.88 42.497V69.3274C300.88 75.7544 298.599 81.2399 294.037 85.8022C289.474 90.3644 283.971 92.6456 277.526 92.6456H262.897V101.517ZM277.526 81.0227C280.73 81.0227 283.482 79.8821 285.781 77.5829C288.071 75.2927 289.221 72.5409 289.221 69.3274V42.497C289.221 39.2654 288.071 36.5136 285.781 34.2415C283.482 31.9514 280.73 30.8017 277.526 30.8017H236.646C233.406 30.8017 230.645 31.9514 228.355 34.2415C226.083 36.5136 224.951 39.2654 224.951 42.497V69.3274C224.951 72.5409 226.083 75.2927 228.355 77.5829C230.645 79.8821 233.406 81.0227 236.646 81.0227H251.202V74.0707H262.897V81.0227H277.526Z" fill="white"/>
<path d="M380.52 92.6456C386.965 92.6456 392.469 90.3644 397.031 85.8022C401.593 81.2399 403.874 75.7272 403.874 69.255V19.1064H392.215V69.255C392.215 72.5137 391.065 75.2837 388.775 77.5467C386.476 79.8188 383.724 80.9503 380.52 80.9503H339.641C336.4 80.9503 333.639 79.8188 331.349 77.5467C329.077 75.2837 327.945 72.5137 327.945 69.255V19.1064H316.25V69.255C316.25 75.7272 318.531 81.2399 323.093 85.8022C327.656 90.3644 333.168 92.6456 339.641 92.6456H380.52Z" fill="white"/>
<path d="M518.782 92.6456H504.625L493.871 76.7139H438.037L427.211 92.6456H413.09L462.84 19.1064H469.032L518.782 92.6456ZM485.977 65.0186L465.918 35.364L445.858 65.0186H485.977Z" fill="white"/>
<path d="M618.175 92.6456H610.245L542.246 37.2106V92.6456H530.551V19.1064H538.444L606.48 74.5052V19.1064H618.175V92.6456Z" fill="white"/>
<path d="M726.414 92.6456C732.859 92.6456 738.363 90.3644 742.925 85.8022C747.488 81.2399 749.769 75.7272 749.769 69.255H738.11C738.11 72.5137 736.96 75.2837 734.67 77.5467C732.371 79.8188 729.619 80.9503 726.414 80.9503H685.535C682.294 80.9503 679.534 79.8188 677.243 77.5467C674.971 75.2837 673.84 72.5137 673.84 69.255V42.4608C673.84 39.2564 674.971 36.5045 677.243 34.2053C679.534 31.9151 682.294 30.7655 685.535 30.7655H726.414C729.619 30.7655 732.371 31.9151 734.67 34.2053C736.96 36.5045 738.11 39.2564 738.11 42.4608H749.769C749.769 36.0429 747.488 30.5483 742.925 25.986C738.363 21.4057 732.859 19.1064 726.414 19.1064H685.535C679.063 19.1064 673.55 21.4057 668.988 25.986C664.426 30.5483 662.145 36.0429 662.145 42.4608V69.255C662.145 75.7272 664.426 81.2399 668.988 85.8022C673.55 90.3644 679.063 92.6456 685.535 92.6456H726.414Z" fill="white"/>
<path d="M239.957 158.519H220.694C218.929 158.519 217.417 157.894 216.168 156.636C214.91 155.387 214.285 153.866 214.285 152.074H218.558C218.558 152.68 218.757 153.196 219.173 153.63C219.608 154.047 220.115 154.246 220.694 154.246H239.957C240.554 154.246 241.061 154.047 241.478 153.63C241.912 153.196 242.129 152.68 242.129 152.074V149.322C242.129 148.724 241.912 148.217 241.478 147.801C241.061 147.394 240.554 147.185 239.957 147.185H220.694C218.929 147.185 217.417 146.561 216.168 145.303C214.91 144.053 214.285 142.542 214.285 140.777V137.988C214.285 136.232 214.91 134.721 216.168 133.462C217.417 132.213 218.929 131.58 220.694 131.58H239.957C241.74 131.58 243.261 132.213 244.519 133.462C245.768 134.721 246.402 136.232 246.402 137.988H242.129C242.129 137.391 241.912 136.884 241.478 136.468C241.061 136.06 240.554 135.852 239.957 135.852H220.694C220.115 135.852 219.608 136.06 219.173 136.468C218.757 136.884 218.558 137.391 218.558 137.988V140.777C218.558 141.356 218.757 141.863 219.173 142.297C219.608 142.714 220.115 142.913 220.694 142.913H239.957C241.74 142.913 243.261 143.546 244.519 144.796C245.768 146.027 246.402 147.538 246.402 149.322V152.074C246.402 153.866 245.768 155.387 244.519 156.636C243.261 157.894 241.74 158.519 239.957 158.519Z" fill="white"/>
<path d="M291.471 158.519H261.49V131.58H291.471V135.852H265.763V142.913H288.429V147.185H265.763V154.246H291.471V158.519Z" fill="white"/>
<path d="M329.145 158.519C331.507 158.519 333.526 157.686 335.192 156.02C336.875 154.337 337.726 152.309 337.726 149.937H333.454C333.454 151.15 333.028 152.173 332.186 153.015C331.335 153.839 330.322 154.246 329.145 154.246H314.191C312.978 154.246 311.955 153.839 311.113 153.015C310.289 152.173 309.882 151.15 309.882 149.937V140.125C309.882 138.948 310.289 137.943 311.113 137.119C311.955 136.278 312.978 135.852 314.191 135.852H329.145C330.322 135.852 331.335 136.278 332.186 137.119C333.028 137.943 333.454 138.948 333.454 140.125H337.726C337.726 137.762 336.875 135.744 335.192 134.078C333.526 132.412 331.507 131.58 329.145 131.58H314.191C311.801 131.58 309.773 132.412 308.108 134.078C306.442 135.744 305.609 137.762 305.609 140.125V149.937C305.609 152.309 306.442 154.337 308.108 156.02C309.773 157.686 311.801 158.519 314.191 158.519H329.145Z" fill="white"/>
<path d="M375.408 158.519C377.771 158.519 379.79 157.686 381.455 156.02C383.139 154.337 383.99 152.309 383.99 149.937V131.58H379.717V149.937C379.717 151.15 379.292 152.173 378.45 153.015C377.599 153.839 376.585 154.246 375.408 154.246H360.454C359.241 154.246 358.219 153.839 357.377 153.015C356.553 152.173 356.146 151.15 356.146 149.937V131.58H351.873V149.937C351.873 152.309 352.706 154.337 354.371 156.02C356.037 157.686 358.065 158.519 360.454 158.519H375.408Z" fill="white"/>
<path d="M431.195 158.519H426.922V150.915C426.922 150.336 426.705 149.847 426.271 149.43C425.854 148.996 425.347 148.779 424.75 148.779H403.351V158.519H399.078V131.58H424.75C426.533 131.58 428.054 132.213 429.312 133.462C430.561 134.721 431.195 136.232 431.195 137.988V142.37C431.195 144.017 430.634 145.438 429.529 146.642C430.634 147.855 431.195 149.276 431.195 150.915V158.519ZM424.75 144.506C425.347 144.506 425.854 144.307 426.271 143.89C426.705 143.456 426.922 142.949 426.922 142.37V137.988C426.922 137.391 426.705 136.884 426.271 136.468C425.854 136.06 425.347 135.852 424.75 135.852H403.351V144.506H424.75Z" fill="white"/>
<path d="M476.262 158.519H446.281V131.58H476.262V135.852H450.554V142.913H473.22V147.185H450.554V154.246H476.262V158.519Z" fill="white"/>
<path d="M531.992 158.519C534.355 158.519 536.374 157.686 538.039 156.02C539.723 154.337 540.574 152.309 540.574 149.937H536.301C536.301 151.15 535.876 152.173 535.034 153.015C534.183 153.839 533.169 154.246 531.992 154.246H517.038C515.825 154.246 514.803 153.839 513.961 153.015C513.137 152.173 512.73 151.15 512.73 149.937V140.125C512.73 138.948 513.137 137.943 513.961 137.119C514.803 136.278 515.825 135.852 517.038 135.852H531.992C533.169 135.852 534.183 136.278 535.034 137.119C535.876 137.943 536.301 138.948 536.301 140.125H540.574C540.574 137.762 539.723 135.744 538.039 134.078C536.374 132.412 534.355 131.58 531.992 131.58H517.038C514.649 131.58 512.621 132.412 510.955 134.078C509.29 135.744 508.457 137.762 508.457 140.125V149.937C508.457 152.309 509.29 154.337 510.955 156.02C512.621 157.686 514.649 158.519 517.038 158.519H531.992Z" fill="white"/>
<path d="M578.255 158.519C580.618 158.519 582.636 157.686 584.302 156.02C585.986 154.337 586.837 152.309 586.837 149.937V140.125C586.837 137.762 585.986 135.744 584.302 134.078C582.636 132.412 580.618 131.58 578.255 131.58H563.301C560.911 131.58 558.884 132.412 557.218 134.078C555.553 135.744 554.72 137.762 554.72 140.125V149.937C554.72 152.309 555.553 154.337 557.218 156.02C558.884 157.686 560.911 158.519 563.301 158.519H578.255ZM578.255 154.246H563.301C562.088 154.246 561.065 153.839 560.223 153.015C559.4 152.173 558.992 151.15 558.992 149.937V140.125C558.992 138.948 559.4 137.943 560.223 137.119C561.065 136.278 562.088 135.852 563.301 135.852H578.255C579.432 135.852 580.446 136.278 581.297 137.119C582.138 137.943 582.564 138.948 582.564 140.125V149.937C582.564 151.15 582.138 152.173 581.297 153.015C580.446 153.839 579.432 154.246 578.255 154.246Z" fill="white"/>
<path d="M625.46 158.519C627.823 158.519 629.841 157.686 631.507 156.02C633.191 154.337 634.042 152.309 634.042 149.937V140.125C634.042 137.762 633.191 135.744 631.507 134.078C629.841 132.412 627.823 131.58 625.46 131.58H601.925V158.519H625.46ZM625.46 154.246H606.197V135.852H625.46C626.637 135.852 627.651 136.278 628.502 137.119C629.344 137.943 629.769 138.948 629.769 140.125V149.937C629.769 151.15 629.344 152.173 628.502 153.015C627.651 153.839 626.637 154.246 625.46 154.246Z" fill="white"/>
<path d="M653.401 158.519V131.58H649.128V158.519H653.401Z" fill="white"/>
<path d="M701.556 158.519H698.623L673.712 138.206V158.519H669.439V131.58H672.336L697.284 151.856V131.58H701.556V158.519Z" fill="white"/>
<path d="M740.176 158.519C742.466 158.519 744.485 157.686 746.223 156.02C747.888 154.337 748.73 152.309 748.757 149.937V147.185C748.757 146.344 748.45 145.619 747.852 145.013C747.246 144.415 746.522 144.108 745.68 144.108H732.681V148.416H744.485V149.937C744.485 151.096 744.059 152.11 743.218 152.979C742.321 153.83 741.308 154.246 740.176 154.246H725.222C724.009 154.246 722.986 153.839 722.144 153.015C721.321 152.173 720.913 151.15 720.913 149.937V140.125C720.913 138.948 721.321 137.943 722.144 137.119C722.986 136.278 724.009 135.852 725.222 135.852H740.176C741.353 135.852 742.367 136.278 743.218 137.119C744.059 137.943 744.485 138.948 744.485 140.125H748.757C748.757 137.762 747.907 135.744 746.223 134.078C744.557 132.412 742.539 131.58 740.176 131.58H725.222C722.832 131.58 720.805 132.412 719.139 134.078C717.473 135.744 716.641 137.762 716.641 140.125V149.937C716.641 152.309 717.473 154.337 719.139 156.02C720.805 157.686 722.832 158.519 725.222 158.519H740.176Z" fill="white"/>
<g clip-path="url(#clip0_531_37)">
<path d="M3.43315 46.5438L33.804 6.60437C35.6594 4.16122 37.9539 2.38191 40.6852 1.26647C43.412 0.153278 46.2401 -0.226065 49.1696 0.12844C52.0946 0.478429 54.7763 1.58259 57.2127 3.44317L97.0319 33.899C99.4139 35.7189 101.159 37.9972 102.265 40.7362C103.374 43.4706 103.78 46.2999 103.481 49.2262C103.179 52.1528 102.08 54.8669 100.184 57.3641L90.0604 70.6773L96.6984 75.7529L86.5748 89.0572L79.9368 83.9812L69.8131 97.3033C67.9578 99.742 65.6633 101.519 62.932 102.632C60.2052 103.748 57.3793 104.129 54.4566 103.78C51.5272 103.432 48.8453 102.325 46.4135 100.464L6.59451 70.009C4.15817 68.1485 2.38386 65.8495 1.27152 63.1086C0.154685 60.3696 -0.225861 57.5336 0.127658 54.6004C0.476631 51.6692 1.57775 48.9824 3.43315 46.5438ZM76.7844 60.5252L86.9081 47.2121L47.089 16.7563L16.7181 56.6957L56.5371 87.1517L66.6608 73.8295L53.3848 63.6774L63.5084 50.3735L76.7844 60.5252Z" fill="white"/>
<path d="M138.42 163.898L88.2884 126.217C85.9872 124.487 84.3029 122.344 83.2357 119.785C82.1728 117.225 81.7946 114.57 82.1008 111.819C82.407 109.063 83.4203 106.534 85.1451 104.233L113.327 66.5152C115.05 64.2162 117.187 62.5296 119.74 61.4569C122.291 60.3867 124.939 60.0077 127.684 60.3193C130.433 60.626 132.958 61.6447 135.259 63.3719L185.391 101.053L175.997 113.617L125.865 75.9355L97.6824 113.653L147.814 151.334L138.42 163.898Z" fill="white"/>
</g>
<g clip-path="url(#clip1_531_37)">
<path d="M138.174 163.898L88.0423 126.216C85.7411 124.487 84.0569 122.344 82.9897 119.785C81.9269 117.225 81.5484 114.569 81.8547 111.819C82.1611 109.062 83.1739 106.533 84.8988 104.232L113.081 66.5147C114.804 64.2161 116.941 62.5293 119.494 61.4568C122.045 60.3865 124.693 60.0072 127.438 60.3188C130.187 60.6259 132.712 61.6442 135.013 63.3716L185.145 101.053L175.75 113.617L125.619 75.9351L97.4364 113.653L147.568 151.334L138.174 163.898Z" fill="white"/>
</g>
<g clip-path="url(#clip2_531_37)">
<path d="M3.58549 46.4622L33.9564 6.52282C35.8118 4.07967 38.1063 2.30039 40.8376 1.18494C43.5644 0.0717227 46.3925 -0.307608 49.322 0.0468998C52.2471 0.396899 54.9285 1.50105 57.3648 3.36163L97.1843 33.8174C99.5663 35.6374 101.311 37.9157 102.417 40.6546C103.527 43.3891 103.932 46.2183 103.633 49.1447C103.331 52.0711 102.232 54.7851 100.337 57.2825L90.2127 70.5958L96.8508 75.6714L86.7274 88.9757L80.0893 83.8996L69.9655 97.2218C68.1102 99.6604 65.8157 101.438 63.0844 102.551C60.3575 103.666 57.5318 104.048 54.6088 103.698C51.6794 103.35 48.9977 102.244 46.5659 100.383L6.74687 69.9274C4.31054 68.0669 2.5362 65.768 1.42386 63.0269C0.307022 60.2879 -0.0735151 57.4519 0.280001 54.5187C0.629012 51.5878 1.73009 48.9008 3.58549 46.4622ZM76.9366 60.4437L87.0604 47.1306L47.2414 16.6748L16.8705 56.6141L56.6894 87.0701L66.8132 73.748L53.5371 63.5959L63.661 50.2917L76.9366 60.4437Z" fill="white"/>
</g>
<defs>
<clipPath id="clip0_531_37">
<rect width="74.6071" height="164" fill="white" transform="translate(43.2324)"/>
</clipPath>
<clipPath id="clip1_531_37">
<rect width="50.3968" height="101.076" fill="white" transform="translate(134.885 62.9243)"/>
</clipPath>
<clipPath id="clip2_531_37">
<rect width="26.1866" height="75.8066" fill="white" transform="translate(0 16.8457)"/>
</clipPath>
</defs>
</svg>
